<svg width="1400" height="529" viewBox="0 0 1400 529" fill="none" xmlns="http://www.w3.org/2000/svg">
<rect x="0.5" y="490.5" width="36" height="38" stroke="#232323" stroke-opacity="0.5"/>
<rect x="0.5" y="441.5" width="36" height="38" stroke="#232323" stroke-opacity="0.5"/>
<rect x="0.5" y="392.5" width="36" height="38" stroke="#232323" stroke-opacity="0.5"/>
<rect x="0.5" y="343.5" width="36" height="38" stroke="#232323" stroke-opacity="0.5"/>
<rect x="0.5" y="294.5" width="36" height="38" stroke="#232323" stroke-opacity="0.5"/>
<rect x="0.5" y="245.5" width="36" height="38" stroke="#232323" stroke-opacity="0.5"/>
<rect x="0.5" y="196.5" width="36" height="38" stroke="#232323" stroke-opacity="0.5"/>
<rect x="0.5" y="147.5" width="36" height="38" stroke="#232323" stroke-opacity="0.5"/>
<rect x="0.5" y="98.5" width="36" height="38" stroke="#232323" stroke-opacity="0.5"/>
<rect x="0.5" y="49.5" width="36" height="38" stroke="#232323" stroke-opacity="0.5"/>
<rect x="0.5" y="0.5" width="36" height="38" stroke="#232323" stroke-opacity="0.5"/>
<rect x="47.5" y="490.5" width="36" height="38" stroke="#232323" stroke-opacity="0.5"/>
<rect x="47.5" y="441.5" width="36" height="38" stroke="#232323" stroke-opacity="0.5"/>
<rect x="47.5" y="392.5" width="36" height="38" stroke="#232323" stroke-opacity="0.5"/>
<rect x="47.5" y="343.5" width="36" height="38" stroke="#232323" stroke-opacity="0.5"/>
<rect x="47.5" y="294.5" width="36" height="38" stroke="#232323" stroke-opacity="0.5"/>
<rect x="47.5" y="245.5" width="36" height="38" stroke="#232323" stroke-opacity="0.5"/>
<rect x="47.5" y="196.5" width="36" height="38" stroke="#232323" stroke-opacity="0.5"/>
<rect x="47.5" y="147.5" width="36" height="38" stroke="#232323" stroke-opacity="0.5"/>
<rect x="47.5" y="98.5" width="36" height="38" stroke="#232323" stroke-opacity="0.5"/>
<rect x="47.5" y="49.5" width="36" height="38" stroke="#232323" stroke-opacity="0.5"/>
<rect x="47.5" y="0.5" width="36" height="38" stroke="#232323" stroke-opacity="0.5"/>
<rect x="94.5" y="490.5" width="36" height="38" stroke="#232323" stroke-opacity="0.5"/>
<rect x="94.5" y="441.5" width="36" height="38" stroke="#232323" stroke-opacity="0.5"/>
<rect x="94.5" y="392.5" width="36" height="38" stroke="#232323" stroke-opacity="0.5"/>
<rect x="94.5" y="343.5" width="36" height="38" stroke="#232323" stroke-opacity="0.5"/>
<rect x="94.5" y="294.5" width="36" height="38" stroke="#232323" stroke-opacity="0.5"/>
<rect x="94.5" y="245.5" width="36" height="38" stroke="#232323" stroke-opacity="0.5"/>
<rect x="94.5" y="196.5" width="36" height="38" stroke="#232323" stroke-opacity="0.5"/>
<rect x="94.5" y="147.5" width="36" height="38" stroke="#232323" stroke-opacity="0.5"/>
<rect x="94.5" y="98.5" width="36" height="38" stroke="#232323" stroke-opacity="0.5"/>
<rect x="94.5" y="49.5" width="36" height="38" stroke="#232323" stroke-opacity="0.5"/>
<rect x="94.5" y="0.5" width="36" height="38" stroke="#232323" stroke-opacity="0.5"/>
<rect x="141.5" y="490.5" width="36" height="38" stroke="#232323" stroke-opacity="0.5"/>
<rect x="141.5" y="441.5" width="36" height="38" stroke="#232323" stroke-opacity="0.5"/>
<rect x="141.5" y="392.5" width="36" height="38" stroke="#232323" stroke-opacity="0.5"/>
<rect x="141.5" y="343.5" width="36" height="38" stroke="#232323" stroke-opacity="0.5"/>
<rect x="141.5" y="294.5" width="36" height="38" stroke="#232323" stroke-opacity="0.5"/>
<rect x="141.5" y="245.5" width="36" height="38" stroke="#232323" stroke-opacity="0.5"/>
<rect x="141.5" y="196.5" width="36" height="38" stroke="#232323" stroke-opacity="0.5"/>
<rect x="141.5" y="147.5" width="36" height="38" stroke="#232323" stroke-opacity="0.5"/>
<rect x="141.5" y="98.5" width="36" height="38" stroke="#232323" stroke-opacity="0.5"/>
<rect x="141.5" y="49.5" width="36" height="38" stroke="#232323" stroke-opacity="0.5"/>
<rect x="141.5" y="0.5" width="36" height="38" stroke="#232323" stroke-opacity="0.5"/>
<rect x="188.5" y="490.5" width="36" height="38" stroke="#232323" stroke-opacity="0.5"/>
<rect x="188.5" y="441.5" width="36" height="38" stroke="#232323" stroke-opacity="0.5"/>
<rect x="188.5" y="392.5" width="36" height="38" stroke="#232323" stroke-opacity="0.5"/>
<rect x="188.5" y="343.5" width="36" height="38" stroke="#232323" stroke-opacity="0.5"/>
<rect x="188.5" y="294.5" width="36" height="38" stroke="#232323" stroke-opacity="0.5"/>
<rect x="188.5" y="245.5" width="36" height="38" stroke="#232323" stroke-opacity="0.5"/>
<rect x="188.5" y="196.5" width="36" height="38" stroke="#232323" stroke-opacity="0.5"/>
<rect x="188.5" y="147.5" width="36" height="38" stroke="#232323" stroke-opacity="0.5"/>
<rect x="188.5" y="98.5" width="36" height="38" stroke="#232323" stroke-opacity="0.5"/>
<rect x="188.5" y="49.5" width="36" height="38" stroke="#232323" stroke-opacity="0.5"/>
<rect x="188.5" y="0.5" width="36" height="38" stroke="#232323" stroke-opacity="0.5"/>
<rect x="235.5" y="490.5" width="36" height="38" stroke="#232323" stroke-opacity="0.5"/>
<rect x="235.5" y="441.5" width="36" height="38" stroke="#232323" stroke-opacity="0.5"/>
<rect x="235.5" y="392.5" width="36" height="38" stroke="#232323" stroke-opacity="0.5"/>
<rect x="235.5" y="343.5" width="36" height="38" stroke="#232323" stroke-opacity="0.5"/>
<rect x="235.5" y="294.5" width="36" height="38" stroke="#232323" stroke-opacity="0.5"/>
<rect x="235.5" y="245.5" width="36" height="38" stroke="#232323" stroke-opacity="0.5"/>
<rect x="235.5" y="196.5" width="36" height="38" stroke="#232323" stroke-opacity="0.5"/>
<rect x="235.5" y="147.5" width="36" height="38" stroke="#232323" stroke-opacity="0.5"/>
<rect x="235.5" y="98.5" width="36" height="38" stroke="#232323" stroke-opacity="0.5"/>
<rect x="235.5" y="49.5" width="36" height="38" stroke="#232323" stroke-opacity="0.5"/>
<rect x="235.5" y="0.5" width="36" height="38" stroke="#232323" stroke-opacity="0.5"/>
<rect x="282.5" y="490.5" width="36" height="38" stroke="#232323" stroke-opacity="0.5"/>
<rect x="282.5" y="441.5" width="36" height="38" stroke="#232323" stroke-opacity="0.5"/>
<rect x="282.5" y="392.5" width="36" height="38" stroke="#232323" stroke-opacity="0.5"/>
<rect x="282.5" y="343.5" width="36" height="38" stroke="#232323" stroke-opacity="0.5"/>
<rect x="282.5" y="294.5" width="36" height="38" stroke="#232323" stroke-opacity="0.5"/>
<rect x="282.5" y="245.5" width="36" height="38" stroke="#232323" stroke-opacity="0.5"/>
<rect x="282.5" y="196.5" width="36" height="38" stroke="#232323" stroke-opacity="0.5"/>
<rect x="282.5" y="147.5" width="36" height="38" stroke="#232323" stroke-opacity="0.5"/>
<rect x="282.5" y="98.5" width="36" height="38" stroke="#232323" stroke-opacity="0.5"/>
<rect x="282.5" y="49.5" width="36" height="38" stroke="#232323" stroke-opacity="0.5"/>
<rect x="282.5" y="0.5" width="36" height="38" stroke="#232323" stroke-opacity="0.5"/>
<rect x="329.5" y="490.5" width="36" height="38" stroke="#232323" stroke-opacity="0.5"/>
<rect x="329.5" y="441.5" width="36" height="38" stroke="#232323" stroke-opacity="0.5"/>
<rect x="329.5" y="392.5" width="36" height="38" stroke="#232323" stroke-opacity="0.5"/>
<rect x="329.5" y="343.5" width="36" height="38" stroke="#232323" stroke-opacity="0.5"/>
<rect x="329.5" y="294.5" width="36" height="38" stroke="#232323" stroke-opacity="0.5"/>
<rect x="329.5" y="245.5" width="36" height="38" stroke="#232323" stroke-opacity="0.5"/>
<rect x="329.5" y="196.5" width="36" height="38" stroke="#232323" stroke-opacity="0.5"/>
<rect x="329.5" y="147.5" width="36" height="38" stroke="#232323" stroke-opacity="0.5"/>
<rect x="329.5" y="98.5" width="36" height="38" stroke="#232323" stroke-opacity="0.5"/>
<rect x="329.5" y="49.5" width="36" height="38" stroke="#232323" stroke-opacity="0.5"/>
<rect x="329.5" y="0.5" width="36" height="38" stroke="#232323" stroke-opacity="0.5"/>
<rect x="376.5" y="490.5" width="36" height="38" stroke="#232323" stroke-opacity="0.5"/>
<rect x="376.5" y="441.5" width="36" height="38" stroke="#232323" stroke-opacity="0.5"/>
<rect x="376.5" y="392.5" width="36" height="38" stroke="#232323" stroke-opacity="0.5"/>
<rect x="376.5" y="343.5" width="36" height="38" stroke="#232323" stroke-opacity="0.5"/>
<rect x="376.5" y="294.5" width="36" height="38" stroke="#232323" stroke-opacity="0.5"/>
<rect x="376.5" y="245.5" width="36" height="38" stroke="#232323" stroke-opacity="0.5"/>
<rect x="376.5" y="196.5" width="36" height="38" stroke="#232323" stroke-opacity="0.5"/>
<rect x="376.5" y="147.5" width="36" height="38" stroke="#232323" stroke-opacity="0.5"/>
<rect x="376.5" y="98.5" width="36" height="38" stroke="#232323" stroke-opacity="0.5"/>
<rect x="376.5" y="49.5" width="36" height="38" stroke="#232323" stroke-opacity="0.5"/>
<rect x="376.5" y="0.5" width="36" height="38" stroke="#232323" stroke-opacity="0.5"/>
<rect x="423.5" y="490.5" width="36" height="38" stroke="#232323" stroke-opacity="0.5"/>
<rect x="423.5" y="441.5" width="36" height="38" stroke="#232323" stroke-opacity="0.5"/>
<rect x="423.5" y="392.5" width="36" height="38" stroke="#232323" stroke-opacity="0.5"/>
<rect x="423.5" y="343.5" width="36" height="38" stroke="#232323" stroke-opacity="0.5"/>
<rect x="423.5" y="294.5" width="36" height="38" stroke="#232323" stroke-opacity="0.5"/>
<rect x="423.5" y="245.5" width="36" height="38" stroke="#232323" stroke-opacity="0.5"/>
<rect x="423.5" y="196.5" width="36" height="38" stroke="#232323" stroke-opacity="0.5"/>
<rect x="423.5" y="147.5" width="36" height="38" stroke="#232323" stroke-opacity="0.5"/>
<rect x="423.5" y="98.5" width="36" height="38" stroke="#232323" stroke-opacity="0.5"/>
<rect x="423.5" y="49.5" width="36" height="38" stroke="#232323" stroke-opacity="0.5"/>
<rect x="423.5" y="0.5" width="36" height="38" stroke="#232323" stroke-opacity="0.5"/>
<rect x="470.5" y="490.5" width="36" height="38" stroke="#232323" stroke-opacity="0.5"/>
<rect x="470.5" y="441.5" width="36" height="38" stroke="#232323" stroke-opacity="0.5"/>
<rect x="470.5" y="392.5" width="36" height="38" stroke="#232323" stroke-opacity="0.5"/>
<rect x="470.5" y="343.5" width="36" height="38" stroke="#232323" stroke-opacity="0.5"/>
<rect x="470.5" y="294.5" width="36" height="38" stroke="#232323" stroke-opacity="0.5"/>
<rect x="470.5" y="245.5" width="36" height="38" stroke="#232323" stroke-opacity="0.5"/>
<rect x="470.5" y="196.5" width="36" height="38" stroke="#232323" stroke-opacity="0.5"/>
<rect x="470.5" y="147.5" width="36" height="38" stroke="#232323" stroke-opacity="0.5"/>
<rect x="470.5" y="98.5" width="36" height="38" stroke="#232323" stroke-opacity="0.5"/>
<rect x="470.5" y="49.5" width="36" height="38" stroke="#232323" stroke-opacity="0.5"/>
<rect x="470.5" y="0.5" width="36" height="38" stroke="#232323" stroke-opacity="0.5"/>
<rect x="517.5" y="490.5" width="36" height="38" stroke="#232323" stroke-opacity="0.5"/>
<rect x="517.5" y="441.5" width="36" height="38" stroke="#232323" stroke-opacity="0.5"/>
<rect x="517.5" y="392.5" width="36" height="38" stroke="#232323" stroke-opacity="0.5"/>
<rect x="517.5" y="343.5" width="36" height="38" stroke="#232323" stroke-opacity="0.5"/>
<rect x="517.5" y="294.5" width="36" height="38" stroke="#232323" stroke-opacity="0.5"/>
<rect x="517.5" y="245.5" width="36" height="38" stroke="#232323" stroke-opacity="0.5"/>
<rect x="517.5" y="196.5" width="36" height="38" stroke="#232323" stroke-opacity="0.5"/>
<rect x="517.5" y="147.5" width="36" height="38" stroke="#232323" stroke-opacity="0.5"/>
<rect x="517.5" y="98.5" width="36" height="38" stroke="#232323" stroke-opacity="0.5"/>
<rect x="517.5" y="49.5" width="36" height="38" stroke="#232323" stroke-opacity="0.5"/>
<rect x="517.5" y="0.5" width="36" height="38" stroke="#232323" stroke-opacity="0.5"/>
<rect x="564.5" y="490.5" width="36" height="38" stroke="#232323" stroke-opacity="0.5"/>
<rect x="564.5" y="441.5" width="36" height="38" stroke="#232323" stroke-opacity="0.5"/>
<rect x="564.5" y="392.5" width="36" height="38" stroke="#232323" stroke-opacity="0.5"/>
<rect x="564.5" y="343.5" width="36" height="38" stroke="#232323" stroke-opacity="0.5"/>
<rect x="564.5" y="294.5" width="36" height="38" stroke="#232323" stroke-opacity="0.5"/>
<rect x="564.5" y="245.5" width="36" height="38" stroke="#232323" stroke-opacity="0.5"/>
<rect x="564.5" y="196.5" width="36" height="38" stroke="#232323" stroke-opacity="0.5"/>
<rect x="564.5" y="147.5" width="36" height="38" stroke="#232323" stroke-opacity="0.5"/>
<rect x="564.5" y="98.5" width="36" height="38" stroke="#232323" stroke-opacity="0.5"/>
<rect x="564.5" y="49.5" width="36" height="38" stroke="#232323" stroke-opacity="0.5"/>
<rect x="564.5" y="0.5" width="36" height="38" stroke="#232323" stroke-opacity="0.5"/>
<rect x="611.5" y="490.5" width="36" height="38" stroke="#232323" stroke-opacity="0.5"/>
<rect x="611.5" y="441.5" width="36" height="38" stroke="#232323" stroke-opacity="0.5"/>
<rect x="611.5" y="392.5" width="36" height="38" stroke="#232323" stroke-opacity="0.5"/>
<rect x="611.5" y="343.5" width="36" height="38" stroke="#232323" stroke-opacity="0.5"/>
<rect x="611.5" y="294.5" width="36" height="38" stroke="#232323" stroke-opacity="0.5"/>
<rect x="611.5" y="245.5" width="36" height="38" stroke="#232323" stroke-opacity="0.5"/>
<rect x="611.5" y="196.5" width="36" height="38" stroke="#232323" stroke-opacity="0.5"/>
<rect x="611.5" y="147.5" width="36" height="38" stroke="#232323" stroke-opacity="0.5"/>
<rect x="611.5" y="98.5" width="36" height="38" stroke="#232323" stroke-opacity="0.5"/>
<rect x="611.5" y="49.5" width="36" height="38" stroke="#232323" stroke-opacity="0.5"/>
<rect x="611.5" y="0.5" width="36" height="38" stroke="#232323" stroke-opacity="0.5"/>
<rect x="658.5" y="490.5" width="36" height="38" stroke="#232323" stroke-opacity="0.5"/>
<rect x="658.5" y="441.5" width="36" height="38" stroke="#232323" stroke-opacity="0.5"/>
<rect x="658.5" y="392.5" width="36" height="38" stroke="#232323" stroke-opacity="0.5"/>
<rect x="658.5" y="343.5" width="36" height="38" stroke="#232323" stroke-opacity="0.5"/>
<rect x="658.5" y="294.5" width="36" height="38" stroke="#232323" stroke-opacity="0.5"/>
<rect x="658.5" y="245.5" width="36" height="38" stroke="#232323" stroke-opacity="0.5"/>
<rect x="658.5" y="196.5" width="36" height="38" stroke="#232323" stroke-opacity="0.5"/>
<rect x="658.5" y="147.5" width="36" height="38" stroke="#232323" stroke-opacity="0.5"/>
<rect x="658.5" y="98.5" width="36" height="38" stroke="#232323" stroke-opacity="0.5"/>
<rect x="658.5" y="49.5" width="36" height="38" stroke="#232323" stroke-opacity="0.5"/>
<rect x="658.5" y="0.5" width="36" height="38" stroke="#232323" stroke-opacity="0.5"/>
<rect x="705.5" y="490.5" width="36" height="38" stroke="#232323" stroke-opacity="0.5"/>
<rect x="705.5" y="441.5" width="36" height="38" stroke="#232323" stroke-opacity="0.5"/>
<rect x="705.5" y="392.5" width="36" height="38" stroke="#232323" stroke-opacity="0.5"/>
<rect x="705.5" y="343.5" width="36" height="38" stroke="#232323" stroke-opacity="0.5"/>
<rect x="705.5" y="294.5" width="36" height="38" stroke="#232323" stroke-opacity="0.5"/>
<rect x="705.5" y="245.5" width="36" height="38" stroke="#232323" stroke-opacity="0.5"/>
<rect x="705.5" y="196.5" width="36" height="38" stroke="#232323" stroke-opacity="0.5"/>
<rect x="705.5" y="147.5" width="36" height="38" stroke="#232323" stroke-opacity="0.5"/>
<rect x="705.5" y="98.5" width="36" height="38" stroke="#232323" stroke-opacity="0.5"/>
<rect x="705.5" y="49.5" width="36" height="38" stroke="#232323" stroke-opacity="0.5"/>
<rect x="705.5" y="0.5" width="36" height="38" stroke="#232323" stroke-opacity="0.5"/>
<rect x="752.5" y="490.5" width="36" height="38" stroke="#232323" stroke-opacity="0.5"/>
<rect x="752.5" y="441.5" width="36" height="38" stroke="#232323" stroke-opacity="0.5"/>
<rect x="752.5" y="392.5" width="36" height="38" stroke="#232323" stroke-opacity="0.5"/>
<rect x="752.5" y="343.5" width="36" height="38" stroke="#232323" stroke-opacity="0.5"/>
<rect x="752.5" y="294.5" width="36" height="38" stroke="#232323" stroke-opacity="0.5"/>
<rect x="752.5" y="245.5" width="36" height="38" stroke="#232323" stroke-opacity="0.5"/>
<rect x="752.5" y="196.5" width="36" height="38" stroke="#232323" stroke-opacity="0.5"/>
<rect x="752.5" y="147.5" width="36" height="38" stroke="#232323" stroke-opacity="0.5"/>
<rect x="752.5" y="98.5" width="36" height="38" stroke="#232323" stroke-opacity="0.5"/>
<rect x="752.5" y="49.5" width="36" height="38" stroke="#232323" stroke-opacity="0.5"/>
<rect x="752.5" y="0.5" width="36" height="38" stroke="#232323" stroke-opacity="0.5"/>
<rect x="799.5" y="490.5" width="36" height="38" stroke="#232323" stroke-opacity="0.5"/>
<rect x="799.5" y="441.5" width="36" height="38" stroke="#232323" stroke-opacity="0.5"/>
<rect x="799.5" y="392.5" width="36" height="38" stroke="#232323" stroke-opacity="0.5"/>
<rect x="799.5" y="343.5" width="36" height="38" stroke="#232323" stroke-opacity="0.5"/>
<rect x="799.5" y="294.5" width="36" height="38" stroke="#232323" stroke-opacity="0.5"/>
<rect x="799.5" y="245.5" width="36" height="38" stroke="#232323" stroke-opacity="0.5"/>
<rect x="799.5" y="196.5" width="36" height="38" stroke="#232323" stroke-opacity="0.5"/>
<rect x="799.5" y="147.5" width="36" height="38" stroke="#232323" stroke-opacity="0.5"/>
<rect x="799.5" y="98.5" width="36" height="38" stroke="#232323" stroke-opacity="0.5"/>
<rect x="799.5" y="49.5" width="36" height="38" stroke="#232323" stroke-opacity="0.5"/>
<rect x="799.5" y="0.5" width="36" height="38" stroke="#232323" stroke-opacity="0.5"/>
<rect x="846.5" y="490.5" width="36" height="38" stroke="#232323" stroke-opacity="0.5"/>
<rect x="846.5" y="441.5" width="36" height="38" stroke="#232323" stroke-opacity="0.5"/>
<rect x="846.5" y="392.5" width="36" height="38" stroke="#232323" stroke-opacity="0.5"/>
<rect x="846.5" y="343.5" width="36" height="38" stroke="#232323" stroke-opacity="0.5"/>
<rect x="846.5" y="294.5" width="36" height="38" stroke="#232323" stroke-opacity="0.5"/>
<rect x="846.5" y="245.5" width="36" height="38" stroke="#232323" stroke-opacity="0.5"/>
<rect x="846.5" y="196.5" width="36" height="38" stroke="#232323" stroke-opacity="0.5"/>
<rect x="846.5" y="147.5" width="36" height="38" stroke="#232323" stroke-opacity="0.5"/>
<rect x="846.5" y="98.5" width="36" height="38" stroke="#232323" stroke-opacity="0.5"/>
<rect x="846.5" y="49.5" width="36" height="38" stroke="#232323" stroke-opacity="0.5"/>
<rect x="846.5" y="0.5" width="36" height="38" stroke="#232323" stroke-opacity="0.5"/>
<rect x="893.5" y="490.5" width="36" height="38" stroke="#232323" stroke-opacity="0.5"/>
<rect x="893.5" y="441.5" width="36" height="38" stroke="#232323" stroke-opacity="0.5"/>
<rect x="893.5" y="392.5" width="36" height="38" stroke="#232323" stroke-opacity="0.5"/>
<rect x="893.5" y="343.5" width="36" height="38" stroke="#232323" stroke-opacity="0.5"/>
<rect x="893.5" y="294.5" width="36" height="38" stroke="#232323" stroke-opacity="0.5"/>
<rect x="893.5" y="245.5" width="36" height="38" stroke="#232323" stroke-opacity="0.5"/>
<rect x="893.5" y="196.5" width="36" height="38" stroke="#232323" stroke-opacity="0.5"/>
<rect x="893.5" y="147.5" width="36" height="38" stroke="#232323" stroke-opacity="0.5"/>
<rect x="893.5" y="98.5" width="36" height="38" stroke="#232323" stroke-opacity="0.5"/>
<rect x="893.5" y="49.5" width="36" height="38" stroke="#232323" stroke-opacity="0.5"/>
<rect x="893.5" y="0.5" width="36" height="38" stroke="#232323" stroke-opacity="0.5"/>
<rect x="940.5" y="490.5" width="36" height="38" stroke="#232323" stroke-opacity="0.5"/>
<rect x="940.5" y="441.5" width="36" height="38" stroke="#232323" stroke-opacity="0.5"/>
<rect x="940.5" y="392.5" width="36" height="38" stroke="#232323" stroke-opacity="0.5"/>
<rect x="940.5" y="343.5" width="36" height="38" stroke="#232323" stroke-opacity="0.5"/>
<rect x="940.5" y="294.5" width="36" height="38" stroke="#232323" stroke-opacity="0.5"/>
<rect x="940.5" y="245.5" width="36" height="38" stroke="#232323" stroke-opacity="0.5"/>
<rect x="940.5" y="196.5" width="36" height="38" stroke="#232323" stroke-opacity="0.5"/>
<rect x="940.5" y="147.5" width="36" height="38" stroke="#232323" stroke-opacity="0.5"/>
<rect x="940.5" y="98.5" width="36" height="38" stroke="#232323" stroke-opacity="0.5"/>
<rect x="940.5" y="49.5" width="36" height="38" stroke="#232323" stroke-opacity="0.5"/>
<rect x="940.5" y="0.5" width="36" height="38" stroke="#232323" stroke-opacity="0.5"/>
<rect x="987.5" y="490.5" width="36" height="38" stroke="#232323" stroke-opacity="0.5"/>
<rect x="987.5" y="441.5" width="36" height="38" stroke="#232323" stroke-opacity="0.5"/>
<rect x="987.5" y="392.5" width="36" height="38" stroke="#232323" stroke-opacity="0.5"/>
<rect x="987.5" y="343.5" width="36" height="38" stroke="#232323" stroke-opacity="0.5"/>
<rect x="987.5" y="294.5" width="36" height="38" stroke="#232323" stroke-opacity="0.5"/>
<rect x="987.5" y="245.5" width="36" height="38" stroke="#232323" stroke-opacity="0.5"/>
<rect x="987.5" y="196.5" width="36" height="38" stroke="#232323" stroke-opacity="0.5"/>
<rect x="987.5" y="147.5" width="36" height="38" stroke="#232323" stroke-opacity="0.5"/>
<rect x="987.5" y="98.5" width="36" height="38" stroke="#232323" stroke-opacity="0.5"/>
<rect x="987.5" y="49.5" width="36" height="38" stroke="#232323" stroke-opacity="0.5"/>
<rect x="987.5" y="0.5" width="36" height="38" stroke="#232323" stroke-opacity="0.5"/>
<rect x="1034.5" y="490.5" width="36" height="38" stroke="#232323" stroke-opacity="0.5"/>
<rect x="1034.5" y="441.5" width="36" height="38" stroke="#232323" stroke-opacity="0.5"/>
<rect x="1034.5" y="392.5" width="36" height="38" stroke="#232323" stroke-opacity="0.5"/>
<rect x="1034.5" y="343.5" width="36" height="38" stroke="#232323" stroke-opacity="0.5"/>
<rect x="1034.5" y="294.5" width="36" height="38" stroke="#232323" stroke-opacity="0.5"/>
<rect x="1034.5" y="245.5" width="36" height="38" stroke="#232323" stroke-opacity="0.5"/>
<rect x="1034.5" y="196.5" width="36" height="38" stroke="#232323" stroke-opacity="0.5"/>
<rect x="1034.5" y="147.5" width="36" height="38" stroke="#232323" stroke-opacity="0.5"/>
<rect x="1034.5" y="98.5" width="36" height="38" stroke="#232323" stroke-opacity="0.5"/>
<rect x="1034.5" y="49.5" width="36" height="38" stroke="#232323" stroke-opacity="0.5"/>
<rect x="1034.5" y="0.5" width="36" height="38" stroke="#232323" stroke-opacity="0.5"/>
<rect x="1081.5" y="490.5" width="36" height="38" stroke="#232323" stroke-opacity="0.5"/>
<rect x="1081.5" y="441.5" width="36" height="38" stroke="#232323" stroke-opacity="0.5"/>
<rect x="1081.5" y="392.5" width="36" height="38" stroke="#232323" stroke-opacity="0.5"/>
<rect x="1081.5" y="343.5" width="36" height="38" stroke="#232323" stroke-opacity="0.5"/>
<rect x="1081.5" y="294.5" width="36" height="38" stroke="#232323" stroke-opacity="0.5"/>
<rect x="1081.5" y="245.5" width="36" height="38" stroke="#232323" stroke-opacity="0.5"/>
<rect x="1081.5" y="196.5" width="36" height="38" stroke="#232323" stroke-opacity="0.5"/>
<rect x="1081.5" y="147.5" width="36" height="38" stroke="#232323" stroke-opacity="0.5"/>
<rect x="1081.5" y="98.5" width="36" height="38" stroke="#232323" stroke-opacity="0.5"/>
<rect x="1081.5" y="49.5" width="36" height="38" stroke="#232323" stroke-opacity="0.5"/>
<rect x="1081.5" y="0.5" width="36" height="38" stroke="#232323" stroke-opacity="0.5"/>
<rect x="1128.5" y="490.5" width="36" height="38" stroke="#232323" stroke-opacity="0.5"/>
<rect x="1128.5" y="441.5" width="36" height="38" stroke="#232323" stroke-opacity="0.5"/>
<rect x="1128.5" y="392.5" width="36" height="38" stroke="#232323" stroke-opacity="0.5"/>
<rect x="1128.5" y="343.5" width="36" height="38" stroke="#232323" stroke-opacity="0.5"/>
<rect x="1128.5" y="294.5" width="36" height="38" stroke="#232323" stroke-opacity="0.5"/>
<rect x="1128.5" y="245.5" width="36" height="38" stroke="#232323" stroke-opacity="0.5"/>
<rect x="1128.5" y="196.5" width="36" height="38" stroke="#232323" stroke-opacity="0.5"/>
<rect x="1128.5" y="147.5" width="36" height="38" stroke="#232323" stroke-opacity="0.5"/>
<rect x="1128.5" y="98.5" width="36" height="38" stroke="#232323" stroke-opacity="0.5"/>
<rect x="1128.5" y="49.5" width="36" height="38" stroke="#232323" stroke-opacity="0.5"/>
<rect x="1128.5" y="0.5" width="36" height="38" stroke="#232323" stroke-opacity="0.5"/>
<rect x="1175.5" y="490.5" width="36" height="38" stroke="#232323" stroke-opacity="0.5"/>
<rect x="1175.5" y="441.5" width="36" height="38" stroke="#232323" stroke-opacity="0.5"/>
<rect x="1175.5" y="392.5" width="36" height="38" stroke="#232323" stroke-opacity="0.5"/>
<rect x="1175.5" y="343.5" width="36" height="38" stroke="#232323" stroke-opacity="0.5"/>
<rect x="1175.5" y="294.5" width="36" height="38" stroke="#232323" stroke-opacity="0.5"/>
<rect x="1175.5" y="245.5" width="36" height="38" stroke="#232323" stroke-opacity="0.5"/>
<rect x="1175.5" y="196.5" width="36" height="38" stroke="#232323" stroke-opacity="0.5"/>
<rect x="1175.5" y="147.5" width="36" height="38" stroke="#232323" stroke-opacity="0.5"/>
<rect x="1175.5" y="98.5" width="36" height="38" stroke="#232323" stroke-opacity="0.5"/>
<rect x="1175.5" y="49.5" width="36" height="38" stroke="#232323" stroke-opacity="0.5"/>
<rect x="1175.5" y="0.5" width="36" height="38" stroke="#232323" stroke-opacity="0.5"/>
<rect x="1222.5" y="490.5" width="36" height="38" stroke="#232323" stroke-opacity="0.5"/>
<rect x="1222.5" y="441.5" width="36" height="38" stroke="#232323" stroke-opacity="0.5"/>
<rect x="1222.5" y="392.5" width="36" height="38" stroke="#232323" stroke-opacity="0.5"/>
<rect x="1222.5" y="343.5" width="36" height="38" stroke="#232323" stroke-opacity="0.5"/>
<rect x="1222.5" y="294.5" width="36" height="38" stroke="#232323" stroke-opacity="0.5"/>
<rect x="1222.5" y="245.5" width="36" height="38" stroke="#232323" stroke-opacity="0.5"/>
<rect x="1222.5" y="196.5" width="36" height="38" stroke="#232323" stroke-opacity="0.5"/>
<rect x="1222.5" y="147.5" width="36" height="38" stroke="#232323" stroke-opacity="0.5"/>
<rect x="1222.5" y="98.5" width="36" height="38" stroke="#232323" stroke-opacity="0.5"/>
<rect x="1222.5" y="49.5" width="36" height="38" stroke="#232323" stroke-opacity="0.5"/>
<rect x="1222.5" y="0.5" width="36" height="38" stroke="#232323" stroke-opacity="0.5"/>
<rect x="1269.5" y="490.5" width="36" height="38" stroke="#232323" stroke-opacity="0.5"/>
<rect x="1269.5" y="441.5" width="36" height="38" stroke="#232323" stroke-opacity="0.5"/>
<rect x="1269.5" y="392.5" width="36" height="38" stroke="#232323" stroke-opacity="0.5"/>
<rect x="1269.5" y="343.5" width="36" height="38" stroke="#232323" stroke-opacity="0.5"/>
<rect x="1269.5" y="294.5" width="36" height="38" stroke="#232323" stroke-opacity="0.5"/>
<rect x="1269.5" y="245.5" width="36" height="38" stroke="#232323" stroke-opacity="0.5"/>
<rect x="1269.5" y="196.5" width="36" height="38" stroke="#232323" stroke-opacity="0.5"/>
<rect x="1269.5" y="147.5" width="36" height="38" stroke="#232323" stroke-opacity="0.5"/>
<rect x="1269.5" y="98.5" width="36" height="38" stroke="#232323" stroke-opacity="0.5"/>
<rect x="1269.5" y="49.5" width="36" height="38" stroke="#232323" stroke-opacity="0.5"/>
<rect x="1269.5" y="0.5" width="36" height="38" stroke="#232323" stroke-opacity="0.5"/>
<rect x="1316.5" y="490.5" width="36" height="38" stroke="#232323" stroke-opacity="0.5"/>
<rect x="1316.5" y="441.5" width="36" height="38" stroke="#232323" stroke-opacity="0.5"/>
<rect x="1316.5" y="392.5" width="36" height="38" stroke="#232323" stroke-opacity="0.5"/>
<rect x="1316.5" y="343.5" width="36" height="38" stroke="#232323" stroke-opacity="0.5"/>
<rect x="1316.5" y="294.5" width="36" height="38" stroke="#232323" stroke-opacity="0.5"/>
<rect x="1316.5" y="245.5" width="36" height="38" stroke="#232323" stroke-opacity="0.5"/>
<rect x="1316.5" y="196.5" width="36" height="38" stroke="#232323" stroke-opacity="0.5"/>
<rect x="1316.5" y="147.5" width="36" height="38" stroke="#232323" stroke-opacity="0.5"/>
<rect x="1316.5" y="98.5" width="36" height="38" stroke="#232323" stroke-opacity="0.5"/>
<rect x="1316.5" y="49.5" width="36" height="38" stroke="#232323" stroke-opacity="0.5"/>
<rect x="1316.5" y="0.5" width="36" height="38" stroke="#232323" stroke-opacity="0.5"/>
<rect x="1363.5" y="490.5" width="36" height="38" stroke="#232323" stroke-opacity="0.5"/>
<rect x="1363.5" y="441.5" width="36" height="38" stroke="#232323" stroke-opacity="0.5"/>
<rect x="1363.5" y="392.5" width="36" height="38" stroke="#232323" stroke-opacity="0.5"/>
<rect x="1363.5" y="343.5" width="36" height="38" stroke="#232323" stroke-opacity="0.5"/>
<rect x="1363.5" y="294.5" width="36" height="38" stroke="#232323" stroke-opacity="0.5"/>
<rect x="1363.5" y="245.5" width="36" height="38" stroke="#232323" stroke-opacity="0.5"/>
<rect x="1363.5" y="196.5" width="36" height="38" stroke="#232323" stroke-opacity="0.5"/>
<rect x="1363.5" y="147.5" width="36" height="38" stroke="#232323" stroke-opacity="0.5"/>
<rect x="1363.5" y="98.5" width="36" height="38" stroke="#232323" stroke-opacity="0.5"/>
<rect x="1363.5" y="49.5" width="36" height="38" stroke="#232323" stroke-opacity="0.5"/>
<rect x="1363.5" y="0.5" width="36" height="38" stroke="#232323" stroke-opacity="0.5"/>
</svg>
