<svg width="89" height="14" viewBox="0 0 89 14" fill="none" xmlns="http://www.w3.org/2000/svg">
<path d="M4.33057 14V2.00293H0.331543V0.00341797H10.3291V2.00293H6.33008V14H4.33057ZM18.1039 12.0005V11.3369H18.7719V10.6689H19.4354V3.33447H18.7719V2.6709H18.1039V2.00293H14.7685V2.6709H14.1049V3.33447H13.4369V10.6689H14.1049V11.3369H14.7685V12.0005H18.1039ZM13.4369 14V13.3364H12.7689V12.6685H12.1054V12.0005H11.4374V2.00293H12.1054V1.33496H12.7689V0.666992H13.4369V0.00341797H19.4354V0.666992H20.1034V1.33496H20.7714V2.00293H21.435V12.0005H20.7714V12.6685H20.1034V13.3364H19.4354V14H13.4369ZM22.5433 14V0.00341797H24.5428V0.666992H25.2107V1.33496H25.8743V2.00293H26.5423V2.6709H27.2103V3.33447H27.8782V4.00244H28.5418V4.67041H29.2098V5.33398H29.8777V6.00195H30.5413V0.00341797H32.5408V14H30.5413V9.3374H29.8777V8.66943H29.2098V8.00146H28.5418V7.3335H27.8782V6.66992H27.2103V6.00195H26.5423V5.33398H25.8743V4.67041H25.2107V4.00244H24.5428V14H22.5433ZM35.6486 14V13.3364H34.9807V12.6685H34.3171V12.0005H33.6491V2.00293H34.3171V1.33496H34.9807V0.666992H35.6486V0.00341797H41.6472V0.666992H42.3151V1.33496H42.9831V2.00293H43.6467V4.00244H41.6472V3.33447H40.9836V2.6709H40.3156V2.00293H36.9802V2.6709H36.3166V3.33447H35.6486V10.6689H36.3166V11.3369H36.9802V12.0005H40.3156V11.3369H40.9836V10.6689H41.6472V8.00146H39.6477V6.00195H43.6467V12.0005H42.9831V12.6685H42.3151V13.3364H41.6472V14H35.6486ZM51.4215 12.0005V11.3369H52.0895V10.6689H52.753V3.33447H52.0895V2.6709H51.4215V2.00293H48.086V2.6709H47.4225V3.33447H46.7545V10.6689H47.4225V11.3369H48.086V12.0005H51.4215ZM46.7545 14V13.3364H46.0865V12.6685H45.423V12.0005H44.755V2.00293H45.423V1.33496H46.0865V0.666992H46.7545V0.00341797H52.753V0.666992H53.421V1.33496H54.089V2.00293H54.7525V12.0005H54.089V12.6685H53.421V13.3364H52.753V14H46.7545ZM57.8604 14V13.3364H57.1924V12.6685H56.5288V12.0005H55.8608V2.00293H56.5288V1.33496H57.1924V0.666992H57.8604V0.00341797H63.8589V0.666992H64.5269V1.33496H65.1948V2.00293H65.8584V4.00244H63.8589V3.33447H63.1953V2.6709H62.5273V2.00293H59.1919V2.6709H58.5283V3.33447H57.8604V10.6689H58.5283V11.3369H59.1919V12.0005H62.5273V11.3369H63.1953V10.6689H63.8589V10.001H65.8584V12.0005H65.1948V12.6685H64.5269V13.3364H63.8589V14H57.8604ZM66.9667 14V0.00341797H68.9662V6.00195H74.9647V0.00341797H76.9643V14H74.9647V8.00146H68.9662V14H66.9667ZM78.0726 14V12.0005H82.0716V2.00293H78.0726V0.00341797H88.0701V2.00293H84.0711V12.0005H88.0701V14H78.0726Z" fill="#CDFD51"/>
</svg>
